<?xml version="1.0" encoding="UTF-8"?>
<svg width="99px" height="26px" viewBox="0 0 99 26" version="1.1" xmlns="http://www.w3.org/2000/svg" xmlns:xlink="http://www.w3.org/1999/xlink">
    <!-- Generator: Sketch 53.2 (72643) - https://sketchapp.com -->
    <title>trello 2</title>
    <desc>Created with Sketch.</desc>
    <g id="Page-1" stroke="none" stroke-width="1" fill="none" fill-rule="evenodd">
        <g id="trello-2" fill-rule="nonzero">
            <g id="logo-mini">
                <path d="M8.00000002e-07,-5.32907052e-15 L5.97786152,-5.32907052e-15 C13.2896314,-6.64796034e-15 19.2169919,5.82029826 19.2169919,13 L19.2169919,13 C19.2169919,20.1797018 13.2896314,26 5.97786152,26 L8.00000002e-07,26 L8.00000002e-07,-5.32907052e-15 Z" id="Rectangle-Copy-4" fill="#02DE84" transform="translate(9.608496, 13.000000) scale(-1, 1) translate(-9.608496, -13.000000) "></path>
                <path d="M13.9759936,10.7586207 L21.0646172,10.7586207 C25.3508271,10.7586207 28.8254867,14.1705196 28.8254867,18.3793104 L28.8254867,18.3793104 C28.8254867,22.588101 25.3508271,26 21.0646172,26 L13.9759936,26 L13.9759936,10.7586207 Z" id="Rectangle-Copy-5" fill="#8200FF" opacity="0.851376488"></path>
                <rect id="Rectangle-Copy-6" fill="#21BB7C" x="13.9759936" y="0" width="5.24099759" height="10.7586207"></rect>
                <rect id="Rectangle-Copy-7" fill="#A042FF" x="13.9759936" y="10.7586207" width="5.24099759" height="15.2413793"></rect>
            </g>
            <path d="M40.6,22.28 L42.064,22.28 L42.064,25.76 L39.976,25.76 C38.4719925,25.76 37.3080041,25.4280033 36.484,24.764 C35.6599959,24.0999967 35.248,22.9600081 35.248,21.344 L35.248,15.776 L34,15.776 L34,12.368 L35.248,12.368 L35.248,9.104 L39.352,9.104 L39.352,12.368 L42.04,12.368 L42.04,15.776 L39.352,15.776 L39.352,21.344 C39.352,21.9680031 39.7679958,22.28 40.6,22.28 Z M48.976,12.368 L48.976,14.864 C49.9360048,13.1039912 51.215992,12.224 52.816,12.224 L52.816,16.4 L51.808,16.4 C50.8639953,16.4 50.1560024,16.6239978 49.684,17.072 C49.2119976,17.5200022 48.976,18.3039944 48.976,19.424 L48.976,25.76 L44.872,25.76 L44.872,12.368 L48.976,12.368 Z M60.736,25.928 C58.7839902,25.928 57.1840062,25.3000063 55.936,24.044 C54.6879938,22.7879937 54.064,21.1200104 54.064,19.04 C54.064,16.9599896 54.6839938,15.3040062 55.924,14.072 C57.1640062,12.8399938 58.7679902,12.224 60.736,12.224 C62.7040098,12.224 64.3359935,12.8319939 65.632,14.048 C66.9280065,15.2640061 67.576,16.9519892 67.576,19.112 C67.576,19.5760023 67.5440003,20.007998 67.48,20.408 L58.264,20.408 C58.3440004,21.000003 58.6079978,21.4839981 59.056,21.86 C59.5040022,22.2360019 59.9879974,22.424 60.508,22.424 C61.0280026,22.424 61.4159987,22.3720005 61.672,22.268 C61.9280013,22.1639995 62.1159994,22.0600005 62.236,21.956 C62.3560006,21.8519995 62.511999,21.6800012 62.704,21.44 L67.144,21.44 C66.7599981,22.7840067 65.9920058,23.8679959 64.84,24.692 C63.6879942,25.5160041 62.3200079,25.928 60.736,25.928 Z M63.304,17.84 C63.2399997,17.2159969 62.9680024,16.708002 62.488,16.316 C62.0079976,15.923998 61.4400033,15.728 60.784,15.728 C60.1279967,15.728 59.5760022,15.923998 59.128,16.316 C58.6799978,16.708002 58.4000006,17.2159969 58.288,17.84 L63.304,17.84 Z M70.216,25.76 L70.216,8 L74.32,8 L74.32,25.76 L70.216,25.76 Z M77.92,25.76 L77.92,8 L82.024,8 L82.024,25.76 L77.92,25.76 Z M93.664,21.56 C94.2080027,20.9839971 94.48,20.1520054 94.48,19.064 C94.48,17.9759946 94.2000028,17.1480028 93.64,16.58 C93.0799972,16.0119972 92.4160038,15.728 91.648,15.728 C90.8799962,15.728 90.2200028,16.0119972 89.668,16.58 C89.1159972,17.1480028 88.84,17.9759946 88.84,19.064 C88.84,20.1520054 89.1239972,20.9839971 89.692,21.56 C90.2600028,22.1360029 90.9279962,22.424 91.696,22.424 C92.4640038,22.424 93.1199973,22.1360029 93.664,21.56 Z M86.68,24.032 C85.3359933,22.7679937 84.664,21.1040103 84.664,19.04 C84.664,16.9759897 85.3359933,15.3240062 86.68,14.084 C88.0240067,12.8439938 89.6879901,12.224 91.672,12.224 C93.6560099,12.224 95.3159933,12.8439938 96.652,14.084 C97.9880067,15.3240062 98.656,16.9759897 98.656,19.04 C98.656,21.1040103 97.9920066,22.7679937 96.664,24.032 C95.3359934,25.2960063 93.6800099,25.928 91.696,25.928 C89.7119901,25.928 88.0400068,25.2960063 86.68,24.032 Z" id="trello" fill="#9445FB"></path>
        </g>
    </g>
</svg>