<?xml version="1.0" encoding="UTF-8"?>
<svg width="96px" height="26px" viewBox="0 0 96 26" version="1.1" xmlns="http://www.w3.org/2000/svg" xmlns:xlink="http://www.w3.org/1999/xlink">
    <!-- Generator: Sketch 53.2 (72643) - https://sketchapp.com -->
    <title>trello 2</title>
    <desc>Created with Sketch.</desc>
    <g id="Page-1" stroke="none" stroke-width="1" fill="none" fill-rule="evenodd">
        <g id="trello-2" fill-rule="nonzero">
            <g id="logo-mini">
                <path d="M8.00000002e-07,-5.32907052e-15 L5.97786152,-5.32907052e-15 C13.2896314,-6.64796034e-15 19.2169919,5.82029826 19.2169919,13 L19.2169919,13 C19.2169919,20.1797018 13.2896314,26 5.97786152,26 L8.00000002e-07,26 L8.00000002e-07,-5.32907052e-15 Z" id="Rectangle-Copy-4" fill="#02DE84" transform="translate(9.608496, 13.000000) scale(-1, 1) translate(-9.608496, -13.000000) "></path>
                <path d="M13.9759936,10.7586207 L21.0646172,10.7586207 C25.3508271,10.7586207 28.8254867,14.1705196 28.8254867,18.3793104 L28.8254867,18.3793104 C28.8254867,22.588101 25.3508271,26 21.0646172,26 L13.9759936,26 L13.9759936,10.7586207 Z" id="Rectangle-Copy-5" fill="#8200FF" opacity="0.851376488"></path>
                <rect id="Rectangle-Copy-6" fill="#21BB7C" x="13.9759936" y="0" width="5.24099759" height="10.7586207"></rect>
                <rect id="Rectangle-Copy-7" fill="#A042FF" x="13.9759936" y="10.7586207" width="5.24099759" height="15.2413793"></rect>
            </g>
            <path d="M37.6,22.28 L39.064,22.28 L39.064,25.76 L36.976,25.76 C35.4719925,25.76 34.3080041,25.4280033 33.484,24.764 C32.6599959,24.0999967 32.248,22.9600081 32.248,21.344 L32.248,15.776 L31,15.776 L31,12.368 L32.248,12.368 L32.248,9.104 L36.352,9.104 L36.352,12.368 L39.04,12.368 L39.04,15.776 L36.352,15.776 L36.352,21.344 C36.352,21.9680031 36.7679958,22.28 37.6,22.28 Z M45.976,12.368 L45.976,14.864 C46.9360048,13.1039912 48.215992,12.224 49.816,12.224 L49.816,16.4 L48.808,16.4 C47.8639953,16.4 47.1560024,16.6239978 46.684,17.072 C46.2119976,17.5200022 45.976,18.3039944 45.976,19.424 L45.976,25.76 L41.872,25.76 L41.872,12.368 L45.976,12.368 Z M57.736,25.928 C55.7839902,25.928 54.1840062,25.3000063 52.936,24.044 C51.6879938,22.7879937 51.064,21.1200104 51.064,19.04 C51.064,16.9599896 51.6839938,15.3040062 52.924,14.072 C54.1640062,12.8399938 55.7679902,12.224 57.736,12.224 C59.7040098,12.224 61.3359935,12.8319939 62.632,14.048 C63.9280065,15.2640061 64.576,16.9519892 64.576,19.112 C64.576,19.5760023 64.5440003,20.007998 64.48,20.408 L55.264,20.408 C55.3440004,21.000003 55.6079978,21.4839981 56.056,21.86 C56.5040022,22.2360019 56.9879974,22.424 57.508,22.424 C58.0280026,22.424 58.4159987,22.3720005 58.672,22.268 C58.9280013,22.1639995 59.1159994,22.0600005 59.236,21.956 C59.3560006,21.8519995 59.511999,21.6800012 59.704,21.44 L64.144,21.44 C63.7599981,22.7840067 62.9920058,23.8679959 61.84,24.692 C60.6879942,25.5160041 59.3200079,25.928 57.736,25.928 Z M60.304,17.84 C60.2399997,17.2159969 59.9680024,16.708002 59.488,16.316 C59.0079976,15.923998 58.4400033,15.728 57.784,15.728 C57.1279967,15.728 56.5760022,15.923998 56.128,16.316 C55.6799978,16.708002 55.4000006,17.2159969 55.288,17.84 L60.304,17.84 Z M67.216,25.76 L67.216,8 L71.32,8 L71.32,25.76 L67.216,25.76 Z M74.92,25.76 L74.92,8 L79.024,8 L79.024,25.76 L74.92,25.76 Z M90.664,21.56 C91.2080027,20.9839971 91.48,20.1520054 91.48,19.064 C91.48,17.9759946 91.2000028,17.1480028 90.64,16.58 C90.0799972,16.0119972 89.4160038,15.728 88.648,15.728 C87.8799962,15.728 87.2200028,16.0119972 86.668,16.58 C86.1159972,17.1480028 85.84,17.9759946 85.84,19.064 C85.84,20.1520054 86.1239972,20.9839971 86.692,21.56 C87.2600028,22.1360029 87.9279962,22.424 88.696,22.424 C89.4640038,22.424 90.1199973,22.1360029 90.664,21.56 Z M83.68,24.032 C82.3359933,22.7679937 81.664,21.1040103 81.664,19.04 C81.664,16.9759897 82.3359933,15.3240062 83.68,14.084 C85.0240067,12.8439938 86.6879901,12.224 88.672,12.224 C90.6560099,12.224 92.3159933,12.8439938 93.652,14.084 C94.9880067,15.3240062 95.656,16.9759897 95.656,19.04 C95.656,21.1040103 94.9920066,22.7679937 93.664,24.032 C92.3359934,25.2960063 90.6800099,25.928 88.696,25.928 C86.7119901,25.928 85.0400068,25.2960063 83.68,24.032 Z" id="trello" fill="#9445FB"></path>
        </g>
    </g>
</svg>